<?xml version="1.0" encoding="UTF-8"?>
<svg xmlns="http://www.w3.org/2000/svg" xmlns:xlink="http://www.w3.org/1999/xlink"
     width="400" height="400" viewBox="0 0 400 400">
<defs>
</defs>
<path d="M0.0,350.0 L400.0,350.0" stroke="#654321" stroke-width="3" />
<path d="M50.0,350.0 L60.0,340.0" stroke="green" stroke-width="2" />
<path d="M150.0,350.0 L160.0,342.0" stroke="green" stroke-width="2" />
<path d="M300.0,350.0 L290.0,340.0" stroke="green" stroke-width="2" />
<g transform="translate(120, 320)">
<circle cx="0.0" cy="-60.0" r="15.0" fill="none" stroke="black" stroke-width="2.0" />
<path d="M0.0,-45.0 L0.0,0.0" stroke="black" stroke-width="2" />
<path d="M0.0,-35.0 L-20.0,-15.0" stroke="black" stroke-width="2" />
<path d="M0.0,-35.0 L25.0,-55.0" stroke="black" stroke-width="2" />
<path d="M0.0,0.0 L-15.0,30.0" stroke="black" stroke-width="2" />
<path d="M0.0,0.0 L15.0,30.0" stroke="black" stroke-width="2" />
</g>
<g transform="translate(145, 265)">
<g>
<path d="M0.0,0.0 L30.0,-50.0" stroke="#666" stroke-width="2" stroke-dasharray="5,5" />
<animateTransform attributeName="transform" type="scale" dur="4s" from="1 1" to="1 5" repeatCount="indefinite"/>
</g>
</g>
<g transform="translate(175, 215)">
<ellipse cx="10.0" cy="-120.0" rx="25.0" ry="30.0" fill="#ff6b6b" stroke="#cc5555" stroke-width="2.0" />
<ellipse cx="5.0" cy="-130.0" rx="8.0" ry="10.0" fill="#ff9999" stroke="none" stroke-width="0" />
<path d="M10.0,-90.0 L-20.0,-20.0" stroke="#666" stroke-width="2" />
<circle cx="0.0" cy="-60.0" r="15.0" fill="none" stroke="black" stroke-width="2.0" />
<path d="M0.0,-45.0 L0.0,0.0" stroke="black" stroke-width="2" />
<path d="M0.0,-35.0 L-20.0,-20.0" stroke="black" stroke-width="2" />
<path d="M0.0,-35.0 L-25.0,0.0" stroke="black" stroke-width="2" />
<path d="M0.0,0.0 L-10.0,30.0" stroke="black" stroke-width="2" />
<path d="M0.0,0.0 L10.0,30.0" stroke="black" stroke-width="2" />
<animateTransform attributeName="transform" type="translate" dur="4s" from="175 215" to="175 15" repeatCount="indefinite"/>
</g>
<g>
<rect x="192.0" y="10.0" width="203.2" height="32.0" fill="#ffffcc" stroke="none" />
<text x="200.0" y="30.0" font-size="24.0" fill="#333" text-anchor="middle" font-weight="bold">Don't Let Go!</text>
</g>
</svg>