<?xml version="1.0" encoding="UTF-8"?>
<svg xmlns="http://www.w3.org/2000/svg" xmlns:xlink="http://www.w3.org/1999/xlink"
     width="400" height="550" viewBox="0 0 400 550">
<defs>
<marker markerWidth="4.0" markerHeight="4.0" viewBox="-0.1 -0.5 1.0 1.0" orient="auto" id="arrow">
<path d="M-0.1,-0.5 L-0.1,0.5 L0.9,0 Z" fill="black" />
</marker>
</defs>
<path d="M160,30 Q160,10 200,10 Q240,10 240,30 Q240,50 200,50 Q160,50 160,30" fill="none" stroke="black" stroke-width="2.0" />
<text x="200.0" y="35.0" font-size="16.0" fill="black" text-anchor="middle">Start</text>
<path d="M200.0,50.0 L200.0,80.0" stroke="black" stroke-width="2.0" marker-end="url(#arrow)" />
<rect x="120.0" y="80.0" width="160.0" height="45.0" fill="none" stroke="black" stroke-width="2.0" />
<text x="200.0" y="108.0" font-size="16.0" fill="black" text-anchor="middle">i = 0</text>
<path d="M200.0,125.0 L200.0,155.0" stroke="black" stroke-width="2.0" marker-end="url(#arrow)" />
<rect x="120.0" y="155.0" width="160.0" height="45.0" fill="none" stroke="black" stroke-width="2.0" />
<text x="200.0" y="183.0" font-size="16.0" fill="black" text-anchor="middle">print(i)</text>
<path d="M200.0,200.0 L200.0,230.0" stroke="black" stroke-width="2.0" marker-end="url(#arrow)" />
<rect x="120.0" y="230.0" width="160.0" height="45.0" fill="none" stroke="black" stroke-width="2.0" />
<text x="200.0" y="258.0" font-size="16.0" fill="black" text-anchor="middle">i = i + 1</text>
<path d="M200.0,275.0 L200.0,305.0" stroke="black" stroke-width="2.0" marker-end="url(#arrow)" />
<path d="M200,310 L250,355 L200,400 L150,355 Z" fill="none" stroke="black" stroke-width="2.0" />
<text x="200.0" y="360.0" font-size="14.0" fill="black" text-anchor="middle">i &gt; 3?</text>
<text x="175.0" y="420.0" font-size="12.0" fill="black">Yes</text>
<path d="M200.0,400.0 L200.0,450.0" stroke="black" stroke-width="2.0" marker-end="url(#arrow)" />
<path d="M160,475 Q160,455 200,455 Q240,455 240,475 Q240,495 200,495 Q160,495 160,475" fill="none" stroke="black" stroke-width="2.0" />
<text x="200.0" y="480.0" font-size="16.0" fill="black" text-anchor="middle">End</text>
<text x="270.0" y="350.0" font-size="12.0" fill="black">No</text>
<path d="M250,355 L320,355 L320,177 L280,177" fill="none" stroke="black" stroke-width="2.0" marker-end="url(#arrow)" />
<g transform="translate(200, 30)">
<circle cx="0.0" cy="0.0" r="8.0" fill="red" stroke="none" stroke-width="0" />
<animateTransform attributeName="transform" type="translate" dur="12s" values="200 30; 200 102; 200 177; 200 252; 200 355; 320 355; 320 177; 200 177; 200 252; 200 355; 320 355; 320 177; 200 177; 200 252; 200 355; 320 355; 320 177; 200 177; 200 252; 200 355; 200 475" repeatCount="indefinite"/>
</g>
</svg>
