<?xml version="1.0" encoding="UTF-8"?>
<svg xmlns="http://www.w3.org/2000/svg" xmlns:xlink="http://www.w3.org/1999/xlink"
     width="400" height="300" viewBox="0 0 400 300">
<defs>
</defs>
<g transform="translate(80, 120)">
<circle cx="0.0" cy="0.0" r="20.0" fill="none" stroke="black" stroke-width="2.0" />
<circle cx="-7.0" cy="-5.0" r="3.0" fill="black" stroke="none" stroke-width="0" />
<circle cx="7.0" cy="-5.0" r="3.0" fill="black" stroke="none" stroke-width="0" />
<path d="M-8.0,5.0 L8.0,5.0" stroke="black" stroke-width="2.0" />
<path d="M0.0,20.0 L0.0,80.0" stroke="black" stroke-width="2.0" />
<path d="M0.0,40.0 L-30.0,60.0" stroke="black" stroke-width="2.0" />
<path d="M0.0,40.0 L30.0,60.0" stroke="black" stroke-width="2.0" />
<path d="M0.0,80.0 L-20.0,130.0" stroke="black" stroke-width="2.0" />
<path d="M0.0,80.0 L20.0,130.0" stroke="black" stroke-width="2.0" />
<animateTransform attributeName="transform" type="translate" dur="3s" from="80 120" to="250 120" repeatCount="indefinite"/>
</g>
<g transform="translate(320, 120)">
<circle cx="0.0" cy="0.0" r="20.0" fill="none" stroke="black" stroke-width="2.0" />
<circle cx="-7.0" cy="-5.0" r="3.0" fill="black" stroke="none" stroke-width="0" />
<circle cx="7.0" cy="-5.0" r="3.0" fill="black" stroke="none" stroke-width="0" />
<path d="M-8.0,5.0 L8.0,5.0" stroke="black" stroke-width="2.0" />
<path d="M0.0,20.0 L0.0,80.0" stroke="black" stroke-width="2.0" />
<path d="M0.0,40.0 L-30.0,60.0" stroke="black" stroke-width="2.0" />
<path d="M0.0,40.0 L30.0,60.0" stroke="black" stroke-width="2.0" />
<path d="M0.0,80.0 L-20.0,130.0" stroke="black" stroke-width="2.0" />
<path d="M0.0,80.0 L20.0,130.0" stroke="black" stroke-width="2.0" />
</g>
</svg>